<svg width="100" height="102" viewBox="0 0 100 102" fill="none" xmlns="http://www.w3.org/2000/svg">
<path fill-rule="evenodd" clip-rule="evenodd" d="M43.7147 30.4867L25.3299 48.8715L58.1017 81.6433C59.7611 83.3027 60.0164 83.517 60.2406 83.6642C60.5451 83.8641 60.8755 84.0214 61.2226 84.1319C61.4782 84.2132 61.8055 84.2763 64.1397 84.5187L76.7154 85.8249C78.8371 86.0452 80.0404 86.1648 80.9091 86.1788C80.9495 86.1794 80.9874 86.1797 81.0231 86.1799C81.0229 86.1442 81.0226 86.1063 81.0219 86.0659C81.008 85.1972 80.8884 83.9939 80.6681 81.8722L79.3619 69.2965C79.1195 66.9623 79.0564 66.635 78.9751 66.3794C78.8646 66.0323 78.7073 65.7019 78.5074 65.3974C78.3602 65.1732 78.1459 64.9179 76.4865 63.2585L43.7147 30.4867ZM39.472 26.2441L21.0872 44.6288L19.2683 42.8098C17.2182 40.7597 15.9391 39.474 15.0517 38.4288C14.2099 37.4372 14.0785 37.0632 14.0498 36.9748C13.7888 36.1715 13.7888 35.3061 14.0498 34.5027C14.0785 34.4144 14.2099 34.0404 15.0517 33.0487C15.9391 32.0035 17.2182 30.7178 19.2683 28.6677L23.5109 24.4251C25.561 22.375 26.8467 21.0959 27.8919 20.2085C28.8836 19.3667 29.2576 19.2353 29.3459 19.2066C30.1493 18.9456 31.0147 18.9456 31.818 19.2066C31.9064 19.2353 32.2804 19.3667 33.272 20.2085C34.3172 21.0959 35.6029 22.375 37.653 24.4251L39.472 26.2441ZM41.8957 20.1824C37.9355 16.2223 35.9554 14.2422 33.6721 13.5003C31.6637 12.8477 29.5002 12.8477 27.4918 13.5003C25.2085 14.2422 23.2284 16.2223 19.2683 20.1824L15.0256 24.4251C11.0655 28.3852 9.08533 30.3653 8.34344 32.6486C7.69086 34.657 7.69086 36.8205 8.34344 38.8289C9.08533 41.1122 11.0654 43.0923 15.0256 47.0525L53.8591 85.8859C55.3465 87.3734 56.0902 88.1171 56.9483 88.6803C57.7096 89.18 58.5356 89.5733 59.4033 89.8494C60.3814 90.1606 61.4276 90.2693 63.5199 90.4866L76.0956 91.7928C80.1229 92.2111 82.1366 92.4202 83.6266 91.7372C84.9332 91.1382 85.9814 90.09 86.5804 88.7834C87.2634 87.2934 87.0543 85.2797 86.636 81.2524L85.3298 68.6767C85.1125 66.5844 85.0038 65.5382 84.6926 64.5601C84.4165 63.6924 84.0232 62.8664 83.5235 62.1051C82.9603 61.247 82.2166 60.5033 80.7291 59.0159L41.8957 20.1824Z" fill="#4353FF"/>
<path d="M59.7572 26.5238C57.4143 25.6568 57.4143 22.3432 59.7572 21.4762C65.6498 19.2958 70.2958 14.6498 72.4763 8.75713C73.3432 6.41429 76.6569 6.41429 77.5238 8.75713C79.7043 14.6498 84.3503 19.2958 90.2429 21.4762C92.5858 22.3432 92.5858 25.6568 90.2429 26.5238C84.3503 28.7042 79.7043 33.3502 77.5238 39.2429C76.6569 41.5857 73.3432 41.5857 72.4763 39.2429C70.2958 33.3502 65.6498 28.7042 59.7572 26.5238Z" fill="#4351EB"/>
</svg>
