<svg width="512" height="512" viewBox="0 0 512 512" fill="none" xmlns="http://www.w3.org/2000/svg">
<path fill-rule="evenodd" clip-rule="evenodd" d="M464.074 347.086C475.358 318.936 481 287.971 481 254.19C481 220.008 475.358 189.244 464.074 161.898C452.79 134.15 437.031 110.625 416.798 91.3217C396.953 72.0188 373.218 57.1394 345.591 46.6837C317.965 36.2279 288.004 31 255.708 31C223.412 31 193.451 36.2279 165.825 46.6837C138.588 57.1394 114.852 72.0188 94.6187 91.3217C74.7744 110.625 59.2102 134.15 47.9261 161.898C36.6421 189.244 31 220.008 31 254.19C31 287.971 36.6421 318.936 47.9261 347.086C59.2102 374.834 74.7744 398.761 94.6187 418.869C114.852 438.574 138.588 453.855 165.825 464.713C193.451 475.571 223.412 481 255.708 481C288.004 481 317.965 475.571 345.591 464.713C373.218 453.855 396.953 438.574 416.798 418.869C437.031 398.761 452.79 374.834 464.074 347.086ZM322.348 304.766C255.64 376.365 169.339 410.055 129.589 380.016C89.8397 349.977 111.694 267.583 178.402 195.984C245.11 124.386 331.411 90.6949 371.161 120.734C410.91 150.773 389.056 233.167 322.348 304.766Z" fill="#0062FF"/>
</svg>
