<svg width="346" height="346" viewBox="0 0 346 346" fill="none" xmlns="http://www.w3.org/2000/svg">
<path d="M279.954 196.398L279.954 196.398C286.088 192.288 294.135 192.41 300.138 196.738L300.138 196.738C306.185 201.089 308.855 208.758 306.833 215.924L306.831 215.931C306.798 216.052 306.757 216.176 306.71 216.317C288.371 271.198 236.575 310.833 175.594 310.833C99.3757 310.833 37.5 248.925 37.5 172.666C37.5 96.4077 99.3757 34.5 175.594 34.5H175.63C180.559 34.5181 184.903 37.7142 186.39 42.4063L186.39 42.4069C187.887 47.1124 186.165 52.2281 182.299 54.9747L182.291 54.9802C161.112 70.6288 147.375 95.7908 147.375 124.133C147.375 171.602 185.897 210.144 233.341 210.144C250.506 210.144 266.492 205.101 279.926 196.416L279.926 196.416L279.929 196.414L279.95 196.401L279.954 196.398Z" fill="url(#paint0_linear_1065_4)" stroke="#2D86FC"/>
<defs>
<linearGradient id="paint0_linear_1065_4" x1="172.5" y1="34" x2="172.5" y2="311.333" gradientUnits="userSpaceOnUse">
<stop stop-color="#004AAA" stop-opacity="0.54"/>
<stop offset="1" stop-color="#006AF5"/>
</linearGradient>
</defs>
</svg>
