<svg width="512" height="512" viewBox="0 0 512 512" fill="none" xmlns="http://www.w3.org/2000/svg">
<circle cx="256" cy="256" r="256" fill="#F9A600"/>
<path fill-rule="evenodd" clip-rule="evenodd" d="M109.312 124.312C109.312 116.028 116.028 109.312 124.312 109.312H203.625C211.909 109.312 218.625 116.028 218.625 124.312C218.625 132.597 211.909 139.312 203.625 139.312H160.526L227.45 206.237C233.308 212.095 233.308 221.592 227.45 227.45C221.592 233.308 212.095 233.308 206.237 227.45L139.312 160.526V203.625C139.312 211.909 132.597 218.625 124.312 218.625C116.028 218.625 109.312 211.909 109.312 203.625V124.312ZM294.375 124.312C294.375 116.028 301.091 109.312 309.375 109.312H388.688C396.972 109.312 403.688 116.028 403.688 124.312V203.625C403.688 211.909 396.972 218.625 388.688 218.625C380.403 218.625 373.688 211.909 373.688 203.625V160.526L306.763 227.45C300.905 233.308 291.408 233.308 285.55 227.45C279.692 221.592 279.692 212.095 285.55 206.237L352.474 139.312H309.375C301.091 139.312 294.375 132.597 294.375 124.312ZM227.45 285.55C233.308 291.408 233.308 300.905 227.45 306.763L160.526 373.688H203.625C211.909 373.688 218.625 380.403 218.625 388.688C218.625 396.972 211.909 403.688 203.625 403.688H124.312C116.028 403.688 109.312 396.972 109.312 388.688V309.375C109.312 301.091 116.028 294.375 124.312 294.375C132.597 294.375 139.312 301.091 139.312 309.375V352.474L206.237 285.55C212.095 279.692 221.592 279.692 227.45 285.55ZM285.55 285.55C291.408 279.692 300.905 279.692 306.763 285.55L373.688 352.474V309.375C373.688 301.091 380.403 294.375 388.688 294.375C396.972 294.375 403.688 301.091 403.688 309.375V388.688C403.688 396.972 396.972 403.688 388.688 403.688H309.375C301.091 403.688 294.375 396.972 294.375 388.688C294.375 380.403 301.091 373.688 309.375 373.688H352.474L285.55 306.763C279.692 300.905 279.692 291.408 285.55 285.55Z" fill="black"/>
</svg>
